<svg style="enable-background:new 0 0 100 100;" version="1.1" viewBox="0 0 100 100" x="0px" xml:space="preserve" xmlns="http://www.w3.org/2000/svg" xmlns:xlink="http://www.w3.org/1999/xlink" y="0px"> <g id="Layer_1"> </g> <g id="Layer_4"> <path d="M40.31,72.83c0.01,3.7-0.02,7.4,0.04,11.11c0.02,1.17,0.1,2.34,0.13,3.52c0.06,2.86-1.03,5.28-2.93,7.35 c-2.19,2.39-4.96,3.8-8.11,4.47c-3.96,0.84-7.76,0.39-11.37-1.47c-2.37-1.22-4.31-2.96-5.55-5.33c-2.14-4.11-1.81-8.1,0.83-11.91 c0.12-0.17,0.23-0.34,0.34-0.51c0.81-0.77,1.54-1.63,2.45-2.3c2.21-1.62,4.67-2.58,7.38-2.93c3.63-0.47,7.06,0.12,10.28,1.87 c0.38,0.21,0.46,0.15,0.49-0.31c0.01-0.18,0-0.36,0-0.54c0-12.54,0.09-25.08-0.04-37.62c-0.07-7.38-0.01-14.75-0.08-22.13 c0-0.18,0.01-0.36,0-0.54c-0.04-0.4,0.14-0.57,0.54-0.68c4.5-1.2,9-2.43,13.5-3.65c5.16-1.4,10.33-2.79,15.49-4.19 c4.11-1.11,8.21-2.22,12.32-3.33C80,2.63,83.98,1.55,87.97,0.47c0.12-0.03,0.24-0.09,0.37-0.11c0.44-0.09,0.52-0.02,0.54,0.46 c0.01,0.15,0,0.31,0,0.46c-0.01,25.23-0.02,50.46-0.02,75.7c0,0.67-0.15,1.32-0.11,1.98c-0.74,4.22-3.22,7.12-6.89,9.12 c-3.01,1.64-6.25,2.2-9.62,1.88c-3.75-0.35-7.06-1.78-9.71-4.52c-1.73-1.79-2.85-3.93-3.17-6.41c-0.2-1.55-0.13-3.11,0.37-4.62 c0.09-0.27,0.15-0.54,0.23-0.81c0.09-0.15,0.19-0.3,0.26-0.46c0.98-2.26,2.55-4.04,4.59-5.39c3.29-2.17,6.91-3.03,10.85-2.61 c2.45,0.26,4.73,1,6.83,2.27c0.16,0.1,0.31,0.28,0.54,0.24c0.11-0.22,0.06-0.45,0.06-0.67c0-14.02,0-28.04,0-42.06 c0-0.18,0-0.36-0.01-0.54c-0.01-0.23-0.15-0.31-0.36-0.28c-0.15,0.02-0.3,0.08-0.44,0.12c-5.63,1.52-11.26,3.04-16.89,4.56 c-5.09,1.37-10.18,2.75-15.27,4.12c-3.17,0.85-6.35,1.71-9.52,2.56c-0.6,0.16-0.6,0.17-0.61,0.77c0,0.15,0,0.31,0,0.46 c0.05,4.08,0.04,8.17,0.1,12.25c0.12,7.78,0.02,15.57,0.19,23.36C40.28,72.47,40.3,72.65,40.31,72.83z"></path> </g> </svg>