<svg style="enable-background:new 0 0 100 100;" version="1.1" viewBox="0 0 100 100" x="0px" xml:space="preserve" xmlns="http://www.w3.org/2000/svg" xmlns:xlink="http://www.w3.org/1999/xlink" y="0px">
	<style type="text/css">.st0 { fill-rule: evenodd; clip-rule: evenodd; }
	</style>
	<g id="Layer_1"> </g> <g id="Layer_4"> <path class="st0" d="M67.86,9.79c7.88-0.14,12.07,2.73,16.07,6.38c3.4-0.29,7.81-2.19,10.42-3.51c0.84-0.46,2.3-0.73,3.14-1.2 c-1.49,4.02-4.11,6.97-7.21,9.36c-0.69,0.53-1.37,1.25-2.23,1.58c0,0.02,0,0.03,0,0.05c4.41-0.05,8.05-2.04,11.51-3.12 c0,0.02,0,0.03,0,0.05c-1.82,2.89-4.27,5.81-6.89,7.91c-1.06,0.84-2.12,1.68-3.17,2.52c0.06,4.67-0.07,9.13-0.94,13.06 c-5.08,22.82-18.53,38.31-39.83,44.95c-7.65,2.38-20.01,3.36-28.77,1.19c-4.35-1.08-8.27-2.3-11.95-3.91 c-2.05-0.89-3.94-1.86-5.75-2.97c-0.59-0.36-1.19-0.73-1.79-1.09c1.98,0.06,4.26,0.28,6.5,0.25c2.04-0.03,3.96-0.24,5.8-0.64 c4.6-1.01,8.68-2.34,12.2-4.4c1.71-1,4.29-2.17,5.51-3.61c-2.28,0.04-4.35-0.49-6.05-1.09c-6.58-2.32-10.41-6.59-12.9-13.01 c1.99,0.22,7.73,0.74,9.08-0.4c-2.51-0.14-4.92-1.59-6.65-2.67c-5.29-3.31-9.61-8.86-9.57-17.41c0.69,0.33,1.39,0.66,2.08,0.99 c1.33,0.56,2.68,0.86,4.27,1.19c0.67,0.14,2.01,0.53,2.78,0.25c-0.03,0-0.07,0-0.1,0c-1.02-1.19-2.69-1.98-3.72-3.26 c-3.39-4.22-7.37-10.43-5.35-18.16c0.51-1.96,2.11-3.98,2.97-5.58c0.03,0.02,0.07,0.03,0.1,0.05c0.39,0.83,1.28,1.43,1.83,2.13 c1.73,2.15,3.87,4.08,6.05,5.79c7.42,5.81,14.11,9.37,24.85,12.02c2.72,0.67,5.87,1.18,9.13,1.19c-0.91-2.66-0.62-6.97,0.1-9.54 c1.81-6.48,5.74-11.15,11.51-13.65c1.38-0.6,2.91-1.03,4.51-1.38C66.2,9.98,67.03,9.89,67.86,9.79z"></path> </g> </svg>