<svg xmlns="http://www.w3.org/2000/svg" xmlns:xlink="http://www.w3.org/1999/xlink" version="1.1" style="shape-rendering:geometricPrecision; text-rendering:geometricPrecision; image-rendering:optimizeQuality; fill-rule:evenodd; clip-rule:evenodd" viewBox="21.61 180.11 427.75 112.39">
<g><path style="opacity:0.936" fill="#f56000" d="M 224.5,180.5 C 230.585,179.099 234.085,181.432 235,187.5C 241.429,190.763 245.929,195.763 248.5,202.5C 250.867,198.428 252.7,194.095 254,189.5C 258.599,184.374 264.433,181.708 271.5,181.5C 276.078,181.524 279.911,183.19 283,186.5C 285.397,190.623 287.23,194.956 288.5,199.5C 285.622,206.186 283.789,213.186 283,220.5C 281.062,221.86 279.396,221.527 278,219.5C 278.313,212.137 276.98,205.137 274,198.5C 273.167,197.667 272.333,196.833 271.5,196C 269.82,195.966 268.32,195.799 267,195.5C 259.157,207.596 257.157,220.596 261,234.5C 261.5,235.667 262.333,236.5 263.5,237C 271.596,239.361 277.929,237.028 282.5,230C 287.65,228.317 290.65,230.15 291.5,235.5C 287.657,242.094 281.99,246.26 274.5,248C 270.152,248.573 265.819,249.24 261.5,250C 260.782,252.461 260.115,254.961 259.5,257.5C 257.608,260.044 255.775,260.044 254,257.5C 253.667,255.167 253.333,252.833 253,250.5C 249.711,246.295 247.378,241.628 246,236.5C 241.095,245.877 233.262,250.543 222.5,250.5C 213.56,247.277 205.394,242.611 198,236.5C 197.112,240.027 196.278,243.527 195.5,247C 196.702,257.352 198.035,267.686 199.5,278C 198.358,283.158 196.191,283.658 193,279.5C 191,270.167 189,260.833 187,251.5C 180.22,243.714 172.553,237.047 164,231.5C 164.198,237.155 164.198,242.821 164,248.5C 163.816,251.119 162.983,253.619 161.5,256C 160.5,256.667 159.5,256.667 158.5,256C 153.644,250.1 151.144,243.266 151,235.5C 151.285,241.763 148.785,246.596 143.5,250C 138.923,253.54 134.09,256.706 129,259.5C 128.272,262.23 128.438,264.897 129.5,267.5C 128.149,271.207 126.149,271.874 123.5,269.5C 122.517,265.368 120.684,261.702 118,258.5C 114.87,241.251 109.204,224.917 101,209.5C 100.153,206.412 100.653,203.579 102.5,201C 108.897,197.763 115.397,194.929 122,192.5C 125.354,193.811 128.854,194.644 132.5,195C 136.49,198.149 138.49,202.315 138.5,207.5C 138.066,211.967 136.733,216.134 134.5,220C 141.156,219.975 145.656,223.142 148,229.5C 146.498,219.496 144.665,209.496 142.5,199.5C 142.151,196.029 143.484,193.529 146.5,192C 154.246,191.104 161.913,191.437 169.5,193C 177.362,196.92 179.862,203.087 177,211.5C 176.215,213.286 175.049,214.786 173.5,216C 180.931,220.928 187.931,226.428 194.5,232.5C 194.833,232.333 195.167,232.167 195.5,232C 190.985,223.324 190.485,214.491 194,205.5C 195.715,203.241 197.548,201.074 199.5,199C 197.309,196.42 197.642,193.92 200.5,191.5C 205.739,190.548 210.072,188.048 213.5,184C 217.161,182.407 220.828,181.241 224.5,180.5 Z M 121.5,205.5 C 123.5,205.5 125.5,205.5 127.5,205.5C 127.038,211.421 124.705,216.421 120.5,220.5C 117.611,216.522 116.611,212.189 117.5,207.5C 119.026,207.006 120.359,206.339 121.5,205.5 Z M 159.5,202.5 C 161.668,202.335 164.001,202.668 166.5,203.5C 166.714,205.144 166.38,206.644 165.5,208C 163.24,209.689 160.74,210.856 158,211.5C 156.921,208.937 156.421,206.271 156.5,203.5C 157.791,203.737 158.791,203.404 159.5,202.5 Z M 228.5,197.5 C 232.316,198.154 235.149,200.154 237,203.5C 240.485,212.958 240.152,222.291 236,231.5C 226.861,239.752 218.194,239.419 210,230.5C 206.484,225.366 205.15,220.032 206,214.5C 206.561,212.275 207.561,210.275 209,208.5C 212.667,205.167 216.333,201.833 220,198.5C 221.232,203.721 221.899,209.054 222,214.5C 224,218.5 226,218.5 228,214.5C 228.499,208.843 228.666,203.176 228.5,197.5 Z M 134.5,230.5 C 138.108,232.383 139.608,235.383 139,239.5C 135.333,242.167 131.667,244.833 128,247.5C 127.727,245.899 127.227,244.399 126.5,243C 126.833,242.667 127.167,242.333 127.5,242C 126.198,239.787 125.198,237.454 124.5,235C 127.703,232.997 131.036,231.497 134.5,230.5 Z"/></g>
<g><path style="opacity:1" fill="#fed925" d="M 270.5,183.5 C 275.212,183.773 279.045,185.773 282,189.5C 283.118,192.855 284.618,196.022 286.5,199C 285.711,201.365 284.544,203.532 283,205.5C 282.792,209.918 282.126,214.251 281,218.5C 281.641,210.099 279.641,202.433 275,195.5C 271.558,193.267 267.892,192.933 264,194.5C 262.454,199.045 260.454,203.378 258,207.5C 256.352,216.211 256.352,224.878 258,233.5C 259.337,238.34 262.504,240.673 267.5,240.5C 270.532,240.194 273.532,239.694 276.5,239C 279.671,236.659 282.671,234.159 285.5,231.5C 287.046,232.212 288.046,233.378 288.5,235C 286.351,238.482 283.518,241.316 280,243.5C 273.689,245.682 267.189,246.848 260.5,247C 258.966,249.966 257.8,253.133 257,256.5C 253.815,249.443 251.149,242.109 249,234.5C 249.485,225.119 249.818,215.786 250,206.5C 252.333,200.833 254.667,195.167 257,189.5C 261.153,186.518 265.653,184.518 270.5,183.5 Z"/></g>
<g><path style="opacity:1" fill="#fed926" d="M 220.5,183.5 C 224.437,183.207 228.27,183.54 232,184.5C 231.534,188.699 233.367,191.199 237.5,192C 240.372,194.537 242.872,197.37 245,200.5C 247.261,209.693 247.594,219.026 246,228.5C 243.234,240.588 235.567,246.922 223,247.5C 219.263,247.025 215.763,245.858 212.5,244C 207.683,240.843 203.183,237.343 199,233.5C 192.4,221.815 193.067,210.815 201,200.5C 200.773,198.426 200.939,196.426 201.5,194.5C 203.078,193.702 204.744,193.202 206.5,193C 210.747,189.056 215.414,185.889 220.5,183.5 Z M 228.5,197.5 C 228.666,203.176 228.499,208.843 228,214.5C 226,218.5 224,218.5 222,214.5C 221.899,209.054 221.232,203.721 220,198.5C 216.333,201.833 212.667,205.167 209,208.5C 207.561,210.275 206.561,212.275 206,214.5C 205.15,220.032 206.484,225.366 210,230.5C 218.194,239.419 226.861,239.752 236,231.5C 240.152,222.291 240.485,212.958 237,203.5C 235.149,200.154 232.316,198.154 228.5,197.5 Z"/></g>
<g><path style="opacity:1" fill="#feda26" d="M 154.5,193.5 C 162.61,192.369 169.444,194.703 175,200.5C 175.667,203.833 175.667,207.167 175,210.5C 173.456,212.369 171.956,214.203 170.5,216C 178.647,222.809 186.813,229.643 195,236.5C 194.119,240.013 193.619,243.68 193.5,247.5C 194.998,258.141 195.831,268.807 196,279.5C 193.586,269.865 191.253,260.199 189,250.5C 180.91,240.578 171.41,232.244 160.5,225.5C 160.167,226.167 159.833,226.833 159.5,227.5C 160.646,233.494 161.646,239.494 162.5,245.5C 160.929,247.882 160.096,250.549 160,253.5C 158.667,251.5 157.333,249.5 156,247.5C 151.617,231.133 147.783,214.633 144.5,198C 144.759,196.739 145.426,195.739 146.5,195C 149.365,194.817 152.031,194.317 154.5,193.5 Z M 159.5,202.5 C 158.791,203.404 157.791,203.737 156.5,203.5C 156.421,206.271 156.921,208.937 158,211.5C 160.74,210.856 163.24,209.689 165.5,208C 166.38,206.644 166.714,205.144 166.5,203.5C 164.001,202.668 161.668,202.335 159.5,202.5 Z"/></g>
<g><path style="opacity:1" fill="#feda26" d="M 121.5,195.5 C 133.874,195.35 138.374,201.35 135,213.5C 133.7,216.295 132.2,218.961 130.5,221.5C 131.594,223.303 133.261,223.636 135.5,222.5C 137.299,222.577 138.966,223.077 140.5,224C 144.337,227.845 147.003,232.345 148.5,237.5C 147.622,241.894 145.289,245.394 141.5,248C 136.607,251.891 131.44,255.391 126,258.5C 126,261.833 126,265.167 126,268.5C 124.548,264.263 122.548,260.263 120,256.5C 119.405,255.101 119.572,253.768 120.5,252.5C 115.767,236.46 109.767,220.96 102.5,206C 103.101,204.395 104.101,203.062 105.5,202C 110.119,199.337 115.119,197.67 120.5,197C 121.056,196.617 121.389,196.117 121.5,195.5 Z M 121.5,205.5 C 120.359,206.339 119.026,207.006 117.5,207.5C 116.611,212.189 117.611,216.522 120.5,220.5C 124.705,216.421 127.038,211.421 127.5,205.5C 125.5,205.5 123.5,205.5 121.5,205.5 Z M 134.5,230.5 C 131.036,231.497 127.703,232.997 124.5,235C 125.198,237.454 126.198,239.787 127.5,242C 127.167,242.333 126.833,242.667 126.5,243C 127.227,244.399 127.727,245.899 128,247.5C 131.667,244.833 135.333,242.167 139,239.5C 139.608,235.383 138.108,232.383 134.5,230.5 Z"/></g>
<g><path style="opacity:0.924" fill="#f56301" d="M 121.5,202.5 C 128.503,201.673 131.003,204.673 129,211.5C 127.313,218.006 123.479,222.34 117.5,224.5C 116.583,219.411 115.25,214.411 113.5,209.5C 113.529,207.971 114.196,206.804 115.5,206C 117.432,204.541 119.432,203.375 121.5,202.5 Z M 121.5,205.5 C 120.359,206.339 119.026,207.006 117.5,207.5C 116.611,212.189 117.611,216.522 120.5,220.5C 124.705,216.421 127.038,211.421 127.5,205.5C 125.5,205.5 123.5,205.5 121.5,205.5 Z"/></g>
<g><path style="opacity:1" fill="#f56301" d="M 157.5,200.5 C 161.839,199.846 165.673,200.846 169,203.5C 169.743,205.441 169.576,207.274 168.5,209C 164.954,211.238 161.454,213.404 158,215.5C 154.667,211.849 153.334,207.516 154,202.5C 155.302,201.915 156.469,201.249 157.5,200.5 Z M 159.5,202.5 C 158.791,203.404 157.791,203.737 156.5,203.5C 156.421,206.271 156.921,208.937 158,211.5C 160.74,210.856 163.24,209.689 165.5,208C 166.38,206.644 166.714,205.144 166.5,203.5C 164.001,202.668 161.668,202.335 159.5,202.5 Z"/></g>
<g><path style="opacity:0.944" fill="#f56100" d="M 226.5,195.5 C 234.907,195.736 239.74,200.069 241,208.5C 242.536,217.926 241.036,226.759 236.5,235C 221.403,244.873 210.57,241.373 204,224.5C 203.333,220.5 203.333,216.5 204,212.5C 207.723,205.276 213.223,199.942 220.5,196.5C 221.442,196.608 222.275,196.941 223,197.5C 223.047,203.341 223.714,209.008 225,214.5C 226.188,208.222 226.688,201.888 226.5,195.5 Z M 228.5,197.5 C 228.666,203.176 228.499,208.843 228,214.5C 226,218.5 224,218.5 222,214.5C 221.899,209.054 221.232,203.721 220,198.5C 216.333,201.833 212.667,205.167 209,208.5C 207.561,210.275 206.561,212.275 206,214.5C 205.15,220.032 206.484,225.366 210,230.5C 218.194,239.419 226.861,239.752 236,231.5C 240.152,222.291 240.485,212.958 237,203.5C 235.149,200.154 232.316,198.154 228.5,197.5 Z"/></g>
<g><path style="opacity:0.946" fill="#f56201" d="M 132.5,228.5 C 135.044,228.104 137.211,228.771 139,230.5C 141.136,233.237 142.136,236.237 142,239.5C 137.11,244.852 131.276,248.518 124.5,250.5C 124.88,244.585 123.88,238.918 121.5,233.5C 124.895,230.964 128.562,229.298 132.5,228.5 Z M 134.5,230.5 C 131.036,231.497 127.703,232.997 124.5,235C 125.198,237.454 126.198,239.787 127.5,242C 127.167,242.333 126.833,242.667 126.5,243C 127.227,244.399 127.727,245.899 128,247.5C 131.667,244.833 135.333,242.167 139,239.5C 139.608,235.383 138.108,232.383 134.5,230.5 Z"/></g>
<g><path style="opacity:0.946" fill="#f56100" d="M 371.5,200.5 C 386.677,198.174 395.01,204.674 396.5,220C 395.091,223.082 393.258,225.915 391,228.5C 389.973,232.608 388.64,236.608 387,240.5C 383.553,242.353 381.72,241.353 381.5,237.5C 383.893,230.789 383.893,224.122 381.5,217.5C 379.908,215.549 377.908,214.216 375.5,213.5C 364.964,223.936 360.464,236.603 362,251.5C 366.135,255.191 370.969,256.358 376.5,255C 379.632,253.365 382.632,251.532 385.5,249.5C 386.748,250.04 387.915,250.707 389,251.5C 390.043,243.915 392.876,237.082 397.5,231C 402.257,228.98 405.59,225.647 407.5,221C 414.359,220.968 421.192,219.802 428,217.5C 433.744,217.185 438.744,218.852 443,222.5C 441.986,226.692 442.986,230.025 446,232.5C 450.473,242.756 450.473,253.089 446,263.5C 442.265,269.904 437.765,275.737 432.5,281C 429.217,283.24 425.55,284.407 421.5,284.5C 412.812,284.883 405.645,281.883 400,275.5C 396.654,270.134 393.321,264.8 390,259.5C 387.079,261.712 383.912,263.545 380.5,265C 373.181,266.272 365.847,266.772 358.5,266.5C 357.764,268.541 356.931,270.541 356,272.5C 354.333,273.833 352.667,273.833 351,272.5C 350.374,270.287 350.541,268.12 351.5,266C 349.91,262.987 348.743,259.82 348,256.5C 346.148,260.077 343.482,261.077 340,259.5C 338.128,256.795 337.295,253.795 337.5,250.5C 338.704,240.005 338.704,229.505 337.5,219C 337.245,213.956 338.079,209.123 340,204.5C 344.415,201.45 348.082,202.117 351,206.5C 351.189,214.508 351.189,222.508 351,230.5C 354.323,219.681 359.823,210.181 367.5,202C 369.058,201.79 370.391,201.29 371.5,200.5 Z M 424.5,233.5 C 425.598,234.601 425.765,235.934 425,237.5C 423.495,241.35 421.995,245.183 420.5,249C 421.141,251.857 422.807,253.19 425.5,253C 428.385,248.063 430.885,242.896 433,237.5C 435.488,236.588 437.155,237.588 438,240.5C 439.687,252.775 435.854,262.942 426.5,271C 413.91,274.609 406.41,270.109 404,257.5C 402.428,250.551 404.261,244.718 409.5,240C 414.477,237.517 419.477,235.35 424.5,233.5 Z"/></g>
<g><path style="opacity:1" fill="#fed925" d="M 424.5,219.5 C 430.069,219.892 435.403,221.226 440.5,223.5C 441.606,225.284 441.606,227.118 440.5,229C 448.842,240.651 449.342,252.818 442,265.5C 437.451,273.559 430.951,279.225 422.5,282.5C 417.905,281.345 413.238,280.512 408.5,280C 399.605,272.366 394.272,262.866 392.5,251.5C 392.667,248.833 392.833,246.167 393,243.5C 395.087,241.255 396.421,238.588 397,235.5C 400.06,232.386 403.56,229.886 407.5,228C 408.167,226.333 408.833,224.667 409.5,223C 412.833,222.667 416.167,222.333 419.5,222C 421.491,221.626 423.158,220.793 424.5,219.5 Z M 424.5,233.5 C 419.477,235.35 414.477,237.517 409.5,240C 404.261,244.718 402.428,250.551 404,257.5C 406.41,270.109 413.91,274.609 426.5,271C 435.854,262.942 439.687,252.775 438,240.5C 437.155,237.588 435.488,236.588 433,237.5C 430.885,242.896 428.385,248.063 425.5,253C 422.807,253.19 421.141,251.857 420.5,249C 421.995,245.183 423.495,241.35 425,237.5C 425.765,235.934 425.598,234.601 424.5,233.5 Z"/></g>
<g><path style="opacity:0.961" fill="#f56100" d="M 422.5,231.5 C 425.288,231.077 427.288,232.077 428.5,234.5C 421.485,255.422 422.485,255.755 431.5,235.5C 430.001,234.096 430.334,233.43 432.5,233.5C 436.571,234.288 439.405,236.621 441,240.5C 441.987,253.353 437.82,264.186 428.5,273C 410.353,277.86 401.019,270.86 400.5,252C 401.43,247.143 403.43,242.809 406.5,239C 411.798,236.146 417.131,233.646 422.5,231.5 Z M 424.5,233.5 C 419.477,235.35 414.477,237.517 409.5,240C 404.261,244.718 402.428,250.551 404,257.5C 406.41,270.109 413.91,274.609 426.5,271C 435.854,262.942 439.687,252.775 438,240.5C 437.155,237.588 435.488,236.588 433,237.5C 430.885,242.896 428.385,248.063 425.5,253C 422.807,253.19 421.141,251.857 420.5,249C 421.995,245.183 423.495,241.35 425,237.5C 425.765,235.934 425.598,234.601 424.5,233.5 Z"/></g>
<g><path style="opacity:1" fill="#feda26" d="M 342.5,205.5 C 348.017,205.14 350.35,207.807 349.5,213.5C 347.891,227.118 346.725,240.784 346,254.5C 344.757,256.833 343.091,257.5 341,256.5C 340.833,252.667 340.667,248.833 340.5,245C 340.716,232.579 340.883,220.079 341,207.5C 341.717,206.956 342.217,206.289 342.5,205.5 Z"/></g>
<g><path style="opacity:1" fill="#fed926" d="M 375.5,202.5 C 388.126,202.354 393.959,208.687 393,221.5C 389.004,226.464 386.337,232.13 385,238.5C 385.356,232.188 385.356,225.855 385,219.5C 383.581,212.571 379.414,210.071 372.5,212C 369.006,216.178 365.84,220.678 363,225.5C 360.903,231.693 359.403,238.026 358.5,244.5C 357.818,253.818 362.152,258.152 371.5,257.5C 373.5,257.333 375.5,257.167 377.5,257C 380.318,255.662 382.985,254.162 385.5,252.5C 388.246,253.096 389.08,254.763 388,257.5C 385.415,259.758 382.582,261.591 379.5,263C 372.447,263.55 365.447,263.55 358.5,263C 356.634,265.242 355.134,267.742 354,270.5C 347.22,247.185 351.22,225.852 366,206.5C 368.888,204.288 372.055,202.954 375.5,202.5 Z"/></g>
<g><path style="opacity:0.881" fill="#f46100" d="M 325.5,194.5 C 328.522,194.428 330.688,195.762 332,198.5C 332.247,206.357 332.747,214.19 333.5,222C 332.756,229.953 333.09,238.12 334.5,246.5C 332.107,251.288 330.274,256.288 329,261.5C 327.333,262.833 325.667,262.833 324,261.5C 322.928,250.936 321.761,240.436 320.5,230C 315.294,230.287 310.294,231.62 305.5,234C 305.935,238.482 305.435,242.982 304,247.5C 302.916,248.665 302.083,249.998 301.5,251.5C 299.833,252.833 298.167,252.833 296.5,251.5C 294.349,236.996 292.349,222.496 290.5,208C 290.223,200.824 293.556,197.824 300.5,199C 301.87,200.441 302.87,202.108 303.5,204C 303.391,208.622 303.391,213.455 303.5,218.5C 309.167,218.5 314.833,218.5 320.5,218.5C 320.334,212.158 320.5,205.825 321,199.5C 322.059,197.341 323.559,195.674 325.5,194.5 Z"/></g>
<g><path style="opacity:1" fill="#fed925" d="M 325.5,197.5 C 327.124,197.36 328.29,198.027 329,199.5C 329.786,215.348 330.619,231.014 331.5,246.5C 329.516,250.618 328.016,254.952 327,259.5C 325.099,249.029 323.599,238.529 322.5,228C 315.188,227.218 308.688,229.052 303,233.5C 302.667,237.5 302.333,241.5 302,245.5C 301,247.167 300,248.833 299,250.5C 298.489,248.122 297.822,245.788 297,243.5C 295.776,230.149 294.776,216.816 294,203.5C 295.614,200.175 297.614,199.842 300,202.5C 300.373,208.57 301.207,214.57 302.5,220.5C 309.138,221.341 315.805,221.174 322.5,220C 322.516,215.641 322.683,211.141 323,206.5C 323.199,203.278 324.032,200.278 325.5,197.5 Z"/></g>
<g><path style="opacity:0.927" fill="#f56201" d="M 77.5,208.5 C 83.4516,208.337 86.285,211.337 86,217.5C 90.7007,221.866 95.034,226.533 99,231.5C 105.985,231.637 108.485,234.97 106.5,241.5C 110.41,245.515 113.41,250.015 115.5,255C 114.262,264.018 110.762,264.851 105,257.5C 102.191,253.39 99.0247,249.557 95.5,246C 94.5,245.333 93.5,245.333 92.5,246C 90.0993,248.062 87.4326,249.729 84.5,251C 84.9574,251.414 85.2907,251.914 85.5,252.5C 82.8708,255.117 81.2042,258.284 80.5,262C 81.9345,267.41 82.6011,272.91 82.5,278.5C 80.712,278.785 79.0453,278.452 77.5,277.5C 76.1323,273.345 74.4656,269.345 72.5,265.5C 67.4987,272.594 60.9987,277.927 53,281.5C 53.1491,283.813 53.6491,286.147 54.5,288.5C 54.2247,290.609 53.058,291.942 51,292.5C 46.5667,287.41 41.5667,282.744 36,278.5C 24.8189,262.951 20.1522,245.618 22,226.5C 25.2144,221.618 29.3811,217.785 34.5,215C 44.546,213.046 52.046,216.546 57,225.5C 57.6869,227.568 57.5202,229.568 56.5,231.5C 58.1209,235.743 59.4543,240.076 60.5,244.5C 59.0886,249.281 56.9219,249.615 54,245.5C 51.8701,237.707 47.2035,232.04 40,228.5C 38.5272,228.903 37.1939,229.57 36,230.5C 33.5268,244.253 36.6935,256.586 45.5,267.5C 51.8101,270.125 56.9767,268.459 61,262.5C 62.1965,259.911 63.1965,257.244 64,254.5C 65.5843,253.139 67.4176,252.472 69.5,252.5C 70.4177,243.492 71.4177,234.492 72.5,225.5C 68.7638,218.153 70.4305,212.486 77.5,208.5 Z"/></g>
<g><path style="opacity:1" fill="#fed926" d="M 35.5,216.5 C 44.7627,215.961 51.4294,219.794 55.5,228C 54.4086,230.064 54.2419,232.231 55,234.5C 56.5403,237.858 57.707,241.358 58.5,245C 57.6683,245.688 57.0016,245.521 56.5,244.5C 54.0442,235.713 48.7109,229.38 40.5,225.5C 37.6345,226.182 35.1345,227.516 33,229.5C 32.5963,235.659 32.5963,241.992 33,248.5C 34.9638,257.264 39.1305,264.764 45.5,271C 56.9268,272.244 63.9268,267.244 66.5,256C 67.8333,255.333 69.1667,255.333 70.5,256C 71.1695,263.005 68.5029,268.672 62.5,273C 58.8333,275.167 55.1667,277.333 51.5,279.5C 50.7718,282.802 50.6051,286.135 51,289.5C 48.8942,284.853 45.3942,281.686 40.5,280C 28.3668,264.6 22.8668,247.1 24,227.5C 27.6759,223.657 31.5092,219.991 35.5,216.5 Z"/></g>
<g><path style="opacity:1" fill="#feda26" d="M 77.5,211.5 C 79.1667,211.5 80.8333,211.5 82.5,211.5C 82.523,213.927 83.023,216.26 84,218.5C 89.412,223.241 94.0787,228.574 98,234.5C 100.333,235.167 102.667,235.833 105,236.5C 104.217,238.345 103.884,240.345 104,242.5C 107.18,246.345 110.347,250.178 113.5,254C 113.022,256.226 112.355,258.392 111.5,260.5C 106.481,253.817 100.815,247.817 94.5,242.5C 91.0379,244.065 87.7046,245.898 84.5,248C 82.9963,249.491 82.1629,251.324 82,253.5C 81.1475,251.875 80.1475,251.542 79,252.5C 78.407,260.587 78.7403,268.587 80,276.5C 78.3019,271.713 76.3019,267.046 74,262.5C 72.1902,250.657 72.3568,238.824 74.5,227C 72.1481,221.015 73.1481,215.849 77.5,211.5 Z"/></g>
<g><path style="opacity:0.972" fill="#f66802" d="M 83.5,231.5 C 84.8734,231.343 86.2068,231.51 87.5,232C 87.1667,232.333 86.8333,232.667 86.5,233C 88.3031,233.637 89.6364,234.803 90.5,236.5C 87.8144,238.274 84.8144,239.607 81.5,240.5C 81.1667,240 80.8333,239.5 80.5,239C 81.9719,236.654 82.9719,234.154 83.5,231.5 Z"/></g>
</svg>